<?xml version="1.0" standalone="no"?>
<!DOCTYPE svg PUBLIC "-//W3C//DTD SVG 20010904//EN"
 "http://www.w3.org/TR/2001/REC-SVG-20010904/DTD/svg10.dtd">
<svg version="1.0" xmlns="http://www.w3.org/2000/svg"
 width="128.000000pt" height="128.000000pt" viewBox="0 0 128.000000 128.000000"
 preserveAspectRatio="xMidYMid meet">
<metadata>
Created by potrace 1.14, written by Peter Selinger 2001-2017
</metadata>
<g transform="translate(0.000000,128.000000) scale(0.100000,-0.100000)"
fill="#000000" stroke="none">
<path d="M200 1184 c-56 -24 -104 -80 -118 -134 -2 -8 -4 -190 -5 -405 -2
-284 1 -400 10 -427 7 -21 10 -38 7 -38 -3 0 13 -18 35 -40 44 -44 80 -62 126
-64 17 -1 36 -5 43 -9 6 -5 12 -4 12 1 0 13 33 10 42 -3 5 -6 8 -5 8 3 0 8 5
10 12 6 15 -10 67 -11 61 -2 -2 5 1 8 6 8 6 0 11 -6 11 -12 0 -8 3 -9 8 -3 8
12 32 13 50 2 7 -5 12 -3 12 4 0 8 4 8 15 -1 9 -7 15 -8 15 -2 0 12 33 10 42
-3 5 -6 8 -5 8 3 0 8 5 10 12 6 15 -10 67 -11 61 -1 -2 4 1 7 6 7 6 0 11 -6
11 -12 0 -8 3 -9 8 -3 8 12 32 13 50 2 7 -5 12 -3 12 4 0 8 4 8 15 -1 9 -7 15
-8 15 -2 0 12 33 10 42 -3 5 -6 8 -5 8 3 0 8 5 10 12 6 15 -10 67 -11 61 -1
-2 4 1 7 6 7 6 0 11 -6 11 -12 0 -9 3 -9 8 -3 8 12 27 13 38 3 4 -4 13 -3 21
3 9 9 13 8 13 0 0 -6 5 -11 11 -11 5 0 7 5 4 11 -4 6 -1 9 6 8 27 -4 79 13 72
24 -4 7 0 8 13 3 10 -4 15 -4 12 0 -4 3 5 17 20 31 15 14 27 28 28 31 0 4 6
21 14 37 9 23 12 125 13 420 0 215 -4 407 -8 427 -10 51 -78 123 -130 137 -26
7 -178 11 -435 11 -330 -1 -401 -3 -430 -16z"/>
</g>
</svg>
